# xmcd CD database file
#
# Track frame offsets:
#	193
#	10433
#	19593
#	29418
#	42540
#	56445
#	68345
#	76975
#	89328
#	101448
#	114738
#	125853
#	137500
#	148065
#	159088
#	170310
#	181288
#	196110
#	210485
#	222560
#
# Disc length: 3081 seconds
#
# Revision: 0
# Processed by: cddbd v1.4PL0 Copyright (c) Steve Scherf et al.
# Submitted via: CDex 1.40Release
#
DISCID=110c0714
DTITLE=Various Artist - Country Gold - Vol. 3
DYEAR=1993
DGENRE=Country
TTITLE0=Roger Miller - Engine Engine
TTITLE1=Willie Nelson - Waiting Time
TTITLE2=Kitty Wells - Whose Shoulder Will You Cry On
TTITLE3=George Jones - Things Have Gone To Pieces
TTITLE4=Ernnest Tubb and Merle Haggard - Seaman's Blues
TTITLE5=Willie Nelson - I'll Stay Around
TTITLE6=Roger Miller - England Swings
TTITLE7=Kitty Wells - Left To Right
TTITLE8=George Jones - You Comb Her Hair
TTITLE9=Lynn Anderson - Frankie and Johnny
TTITLE10=Patsy Cline - Don't Ever Leave Me Again
TTITLE11=Ernest Tubb and Kris Kristofferson - Letters Have No Arms
TTITLE12=Johnny Paycheck - Loving You Beats All I've Ever Seen
TTITLE13=Waylon Jennings - Big Mamou
TTITLE14=Patsy Cline - Stop The World (And Let Me Off)
TTITLE15=Johnny Paycheck - A-11
TTITLE16=Billie Jo Spears - Crazy
TTITLE17=Stonewall Jackson - A Wound Time Can't Erase
TTITLE18=Jean Sheprad - A Dear John Letter
TTITLE19=Waylon Jennings - Jole Blon
EXTD=YEAR: 1993 ID3G: 2
EXTT0=
EXTT1=
EXTT2=
EXTT3=
EXTT4=
EXTT5=
EXTT6=
EXTT7=
EXTT8=
EXTT9=
EXTT10=
EXTT11=
EXTT12=
EXTT13=
EXTT14=
EXTT15=
EXTT16=
EXTT17=
EXTT18=
EXTT19=
PLAYORDER=
